<?xml version="1.0" encoding="utf-8"?>
<!-- Generator: Adobe Illustrator 27.5.0, SVG Export Plug-In . SVG Version: 6.00 Build 0)  -->
<svg version="1.1" xmlns="http://www.w3.org/2000/svg" xmlns:xlink="http://www.w3.org/1999/xlink" x="0px" y="0px"
	 viewBox="0 0 1920 1080" style="enable-background:new 0 0 1920 1080;" xml:space="preserve">
<g id="BACKGROUND">
	<rect style="fill:#F7E0C7;" width="1920" height="1080"/>
</g>
<g id="OBJECTS">
	<g>
		<defs>
			<rect id="SVGID_1_" width="1920" height="1080"/>
		</defs>
		<clipPath id="SVGID_00000076595790609739675090000014371409827827739821_">
			<use xlink:href="#SVGID_1_"  style="overflow:visible;"/>
		</clipPath>
		<g style="clip-path:url(#SVGID_00000076595790609739675090000014371409827827739821_);">
			<path style="fill:#F2D3B1;" d="M1301.189,915.114c33.301,0,46.945,27.181,46.945,27.181s13.645-27.181,46.946-27.181
				c33.302,0,50.582,32.401,50.582,57.962c0,40.502-44.15,74.943-97.528,114.065c-53.378-39.121-97.528-73.563-97.528-114.065
				C1250.606,947.516,1267.887,915.114,1301.189,915.114z"/>
			<path style="fill:#F2D3B1;" d="M894.454,228.443c13.28,0,18.721,10.839,18.721,10.839s5.441-10.839,18.721-10.839
				c13.28,0,20.171,12.921,20.171,23.114c0,16.151-17.606,29.885-38.891,45.486c-21.286-15.601-38.891-29.335-38.891-45.486
				C874.284,241.364,881.175,228.443,894.454,228.443z"/>
			<path style="fill:#F2D3B1;" d="M1821.603,387.808c13.28,0,18.72,10.839,18.72,10.839s5.441-10.839,18.721-10.839
				c13.28,0,20.171,12.921,20.171,23.114c0,16.151-17.606,29.885-38.892,45.486c-21.286-15.601-38.891-29.335-38.891-45.486
				C1801.432,400.729,1808.323,387.808,1821.603,387.808z"/>
			<path style="fill:#F2D3B1;" d="M303.097,46.509c25.758,0,36.311,21.024,36.311,21.024s10.554-21.024,36.312-21.024
				c25.758,0,39.124,25.062,39.124,44.833c0,31.327-34.149,57.967-75.436,88.227c-41.287-30.26-75.436-56.9-75.436-88.227
				C263.973,71.571,277.339,46.509,303.097,46.509z"/>
			<path style="fill:#F2D3B1;" d="M123.296,976.351c25.758,0,36.311,21.024,36.311,21.024s10.554-21.024,36.312-21.024
				c25.758,0,39.124,25.062,39.124,44.833c0,31.327-34.149,57.967-75.436,88.227c-41.287-30.26-75.436-56.9-75.436-88.227
				C84.172,1001.412,97.538,976.351,123.296,976.351z"/>
			<path style="fill:#F2D3B1;" d="M1701.473,554.758c74.142,0,104.518,60.516,104.518,60.516s30.378-60.516,104.52-60.516
				c74.143,0,112.616,72.138,112.616,129.047c0,90.172-98.294,166.853-217.135,253.952
				c-118.841-87.1-217.134-163.78-217.134-253.952C1588.858,626.896,1627.331,554.758,1701.473,554.758z"/>
			<path style="fill:#F2D3B1;" d="M1008.404,20.869c44.724,0,63.049,36.505,63.049,36.505s18.325-36.505,63.049-36.505
				c44.725,0,67.933,43.516,67.933,77.845c0,54.395-59.294,100.651-130.982,153.192c-71.689-52.541-130.982-98.797-130.982-153.192
				C940.471,64.384,963.679,20.869,1008.404,20.869z"/>
			<path style="fill:#F2D3B1;" d="M22.281,158.679c66.888,0,94.293,54.595,94.293,54.595s27.406-54.595,94.294-54.595
				c66.889,0,101.598,65.08,101.598,116.422c0,81.351-88.678,150.529-195.893,229.108C9.36,425.63-79.317,356.451-79.317,275.101
				C-79.317,223.759-44.608,158.679,22.281,158.679z"/>
			<path style="fill:#F2D3B1;" d="M586.795,714.989c23.516,0,33.152,19.195,33.152,19.195s9.635-19.195,33.152-19.195
				c23.517,0,35.72,22.881,35.72,40.932c0,28.601-31.177,52.923-68.872,80.55c-37.695-27.627-68.872-51.948-68.872-80.55
				C551.075,737.87,563.278,714.989,586.795,714.989z"/>
		</g>
	</g>
	<g>
		<defs>
			<rect id="SVGID_00000167362231230355495390000000153322872298386110_" width="1920" height="1080"/>
		</defs>
		<clipPath id="SVGID_00000079447034864142052780000002798535001896681603_">
			<use xlink:href="#SVGID_00000167362231230355495390000000153322872298386110_"  style="overflow:visible;"/>
		</clipPath>
		<g style="clip-path:url(#SVGID_00000079447034864142052780000002798535001896681603_);">
			<g>
				<g>
					<path style="fill:#FFFFFF;" d="M201.128,373.454c1.737-25.199,25.497-31.089,42.029-22.369
						c2.042-26.571,13.171-48.11,54.488-48.11c14.013,0,26.396,6.374,33.207,12.393c12.208,10.79,16.279,26.193,17.564,40.339
						c10.565-9.961,26.915-11.959,40.517-6.876c16.41,6.132,22.299,20.231,21.941,34.747c8.525-0.419,18.589-0.62,26.9,1.32
						c3.064,0.715,6.121,1.781,8.574,3.75c1.891,1.517,3.353,3.519,4.47,5.671c0.022,0.043,0.045,0.087,0.067,0.131
						c3.862,7.602-1.915,16.632-10.44,16.788c-115.388,2.099-244.322-0.367-358.608,2.103c-3.337-2.108-5.831-6.327-4.622-10.085
						c0.482-1.499,1.35-2.845,2.285-4.112c0.945-1.282,1.978-2.513,3.197-3.538c5.308-4.465,14.091-3.951,18.841,1.104
						c-1.315-6.652,2.289-12.801,6.64-18.002c4.351-5.201,10.452-8.704,16.846-10.963c7.391-2.611,15.512-3.667,23.11-1.744
						c7.599,1.924,14.572,7.118,17.502,14.388c0.447-4.447,2.757-8.759,6.222-11.582c3.465-2.823,7.842-4.404,12.284-4.905
						c3.335-0.376,6.827-0.144,9.843,1.327C197.001,366.702,200.748,370.12,201.128,373.454z"/>
				</g>
			</g>
			<g>
				<g>
					<path style="fill:#FFFFFF;" d="M782.114,575.414c1.229-17.822,18.032-21.987,29.723-15.82
						c1.445-18.791,10.104-41.072,44.033-41.076c9.911-0.001,18.668,4.508,23.484,8.765c8.633,7.631,11.513,18.524,12.422,28.528
						c7.472-7.044,19.035-8.458,28.654-4.863c11.605,4.337,15.77,14.308,15.518,24.574c6.029-0.297,13.146-0.438,19.025,0.934
						c2.166,0.505,4.328,1.26,6.063,2.652c1.338,1.073,2.371,2.489,3.161,4.011c0.015,0.03,0.032,0.061,0.047,0.092
						c2.731,5.377-1.354,11.763-7.384,11.873c-81.605,1.485-172.79-0.26-253.616,1.488c-5.106,0.11-10.747,0.012-14.936-2.593
						c-2.041-1.27-2.857-3.87-1.75-6.003c1.301-2.508,4.782-5.584,13.638-7.516C722.725,575.545,756.72,575.692,782.114,575.414z"/>
				</g>
			</g>
			<g>
				<g>
					<path style="fill:#FFFFFF;" d="M139.859,526.884c0.701-10.161,10.281-12.535,16.946-9.019
						c0.824-10.714,5.761-23.417,25.105-23.419c5.651-0.001,10.643,2.57,13.389,4.997c4.922,4.35,6.564,10.561,7.082,16.265
						c4.26-4.016,10.852-4.822,16.337-2.773c6.616,2.473,8.991,8.158,8.847,14.011c3.437-0.169,7.495-0.25,10.847,0.532
						c1.235,0.288,2.468,0.718,3.457,1.512c0.763,0.612,1.352,1.419,1.803,2.287c0.009,0.017,0.018,0.035,0.027,0.053
						c1.557,3.065-0.772,6.706-4.21,6.769c-46.525,0.846-98.513-0.148-144.595,0.848c-2.911,0.063-6.127,0.007-8.515-1.478
						c-1.164-0.724-1.629-2.206-0.997-3.423c0.742-1.43,2.726-3.184,7.775-4.285C105.999,526.959,125.381,527.043,139.859,526.884z"
						/>
				</g>
			</g>
			<g>
				<g>
					<path style="fill:#FFFFFF;" d="M1662.435,890.73c0.701-10.161,10.28-12.535,16.946-9.019
						c0.824-10.714,5.761-23.417,25.105-23.419c5.65,0,10.643,2.57,13.389,4.997c4.922,4.35,6.564,10.561,7.082,16.265
						c4.26-4.016,10.853-4.822,16.337-2.772c6.616,2.473,8.991,8.158,8.847,14.011c3.437-0.169,7.495-0.25,10.847,0.532
						c1.235,0.288,2.468,0.718,3.457,1.512c0.763,0.612,1.352,1.419,1.802,2.286c0.009,0.017,0.018,0.035,0.027,0.053
						c1.557,3.065-0.772,6.706-4.21,6.769c-46.526,0.847-98.513-0.148-144.595,0.848c-2.911,0.063-6.127,0.007-8.515-1.478
						c-1.164-0.724-1.629-2.206-0.998-3.423c0.742-1.43,2.727-3.183,7.776-4.285C1628.575,890.805,1647.957,890.888,1662.435,890.73
						z"/>
				</g>
			</g>
			<g>
				<g>
					<path style="fill:#FFFFFF;" d="M787.023,151.247c0.701-10.161,10.281-12.535,16.946-9.019
						c0.823-10.714,5.761-23.416,25.105-23.419c5.651,0,10.643,2.57,13.389,4.997c4.922,4.351,6.564,10.561,7.082,16.265
						c4.26-4.016,10.852-4.822,16.337-2.772c6.616,2.473,8.991,8.158,8.847,14.011c3.437-0.169,7.495-0.25,10.847,0.533
						c1.235,0.288,2.468,0.718,3.457,1.512c0.763,0.612,1.352,1.419,1.802,2.287c0.009,0.017,0.018,0.035,0.027,0.053
						c1.557,3.065-0.772,6.706-4.21,6.769c-46.526,0.847-98.513-0.148-144.595,0.848c-2.911,0.063-6.127,0.007-8.515-1.478
						c-1.164-0.724-1.629-2.206-0.997-3.423c0.742-1.43,2.727-3.183,7.775-4.285C753.164,151.322,772.545,151.405,787.023,151.247z"
						/>
				</g>
			</g>
			<g>
				<g>
					<path style="fill:#FFFFFF;" d="M619.753,954.794c1.817-26.352,26.664-32.511,43.952-23.392
						c2.135-27.787,13.773-50.312,56.982-50.312c14.655,0,27.604,6.665,34.726,12.96c12.767,11.284,17.024,27.392,18.369,42.185
						c11.049-10.417,28.147-12.506,42.371-7.191c17.16,6.413,23.32,21.158,22.946,36.338c8.915-0.439,19.439-0.648,28.132,1.381
						c3.204,0.748,6.4,1.863,8.966,3.922c1.978,1.586,3.506,3.68,4.674,5.931c0.023,0.045,0.047,0.091,0.07,0.137
						c4.038,7.95-2.003,17.393-10.918,17.556c-120.668,2.196-255.504-0.384-375.021,2.2c-3.489-2.205-6.098-6.617-4.834-10.547
						c0.504-1.568,1.411-2.974,2.389-4.3c0.989-1.341,2.068-2.628,3.343-3.7c5.551-4.67,14.736-4.131,19.703,1.154
						c-1.375-6.956,2.394-13.387,6.945-18.826c4.55-5.439,10.931-9.103,17.616-11.465c7.729-2.73,16.222-3.835,24.168-1.824
						c7.946,2.012,15.239,7.443,18.303,15.046c0.467-4.651,2.883-9.16,6.507-12.112c3.624-2.952,8.201-4.605,12.846-5.13
						c3.487-0.394,7.139-0.151,10.294,1.388C615.437,947.732,619.356,951.307,619.753,954.794z"/>
				</g>
			</g>
			<g>
				<g>
					<path style="fill:#FFFFFF;" d="M1703.075,148.717c1.817-26.352,26.664-32.511,43.952-23.392
						c2.135-27.787,13.774-50.312,56.982-50.312c14.655,0,27.604,6.665,34.726,12.96c12.767,11.284,17.024,27.392,18.369,42.185
						c11.049-10.417,28.147-12.506,42.371-7.19c17.16,6.413,23.32,21.158,22.946,36.338c8.915-0.439,19.439-0.648,28.131,1.381
						c3.204,0.748,6.4,1.863,8.966,3.922c1.977,1.586,3.506,3.68,4.674,5.93c0.023,0.045,0.047,0.091,0.07,0.137
						c4.038,7.95-2.003,17.393-10.918,17.556c-120.668,2.196-255.504-0.384-375.021,2.2c-3.489-2.205-6.098-6.617-4.834-10.547
						c0.505-1.568,1.412-2.974,2.389-4.3c0.989-1.341,2.068-2.628,3.343-3.7c5.551-4.67,14.736-4.131,19.703,1.154
						c-1.375-6.956,2.394-13.387,6.944-18.826c4.55-5.439,10.931-9.103,17.616-11.465c7.729-2.73,16.222-3.835,24.168-1.824
						c7.946,2.012,15.239,7.443,18.303,15.046c0.467-4.651,2.883-9.16,6.507-12.112c3.624-2.952,8.201-4.605,12.846-5.13
						c3.487-0.394,7.139-0.151,10.294,1.388C1698.759,141.656,1702.678,145.23,1703.075,148.717z"/>
				</g>
			</g>
		</g>
	</g>
	<g>
		<g>
			<g>
				<line style="fill:none;stroke:#461B1B;stroke-miterlimit:10;" x1="540.998" y1="303.241" x2="540.515" y2="566.196"/>
				<path style="fill:#E46840;" d="M471.219,216.248c2.612,49.331,35.621,86.651,73.937,87.324
					c38.316,0.673,72.615-35.466,76.957-84.675c4.783-54.205-27.985-103.009-73.648-103.811
					C502.802,114.284,468.342,161.908,471.219,216.248z"/>
				<polygon style="fill:#E46840;" points="543.234,292.215 528.227,318.149 556.106,318.149 				"/>
				<path style="fill:none;stroke:#461B1B;stroke-miterlimit:10;" d="M545.663,274.659c19.921,0.35,38.276-13.654,47.477-35.069"/>
			</g>
			<g>
				<g>
					<polygon style="fill:#F2BB3D;" points="620.167,689.271 421.659,655.457 421.659,655.457 449.758,490.5 449.758,490.5 
						648.265,524.314 620.167,689.271 					"/>
					<g>
						<g>
							<path style="fill:#E46840;" d="M478.175,508.552c-0.399-0.193-0.777-0.395-1.179-0.566c-0.974-0.414-2.035-0.652-3.211-0.602
								c-2.145,0.091-3.915,0.916-5.28,2.43c-1.242,1.377-1.708,2.866-1.533,4.416c0.174,1.536,0.99,2.772,2.21,3.809
								c0.567,0.482,1.196,0.907,1.902,1.25c0.374,0.182,0.791,0.313,1.191,0.463c1.291,0.486,2.583,0.971,3.875,1.455
								c1.097,0.411,2.195,0.82,3.292,1.231c1.12,0.419,2.239,0.839,3.357,1.26c0.289,0.109,0.595,0.017,0.763-0.247
								c0.595-0.93,1.186-1.861,1.778-2.792c0.537-0.845,1.073-1.69,1.61-2.534c0.79-1.243,1.579-2.486,2.369-3.728
								c0.245-0.385,0.492-0.77,0.736-1.156c0.422-0.667,0.667-1.366,0.87-2.071c0.306-1.063,0.419-2.116,0.208-3.136
								c-0.46-2.217-1.882-3.739-4.559-4.301c-1.23-0.258-2.51-0.15-3.793,0.304c-1.384,0.49-2.466,1.296-3.318,2.332
								c-0.532,0.648-0.928,1.337-1.233,2.055C478.212,508.468,478.193,508.51,478.175,508.552z"/>
						</g>
						<g>
							<path style="fill:#FFFFFF;" d="M541.809,653.65c-0.399-0.193-0.777-0.395-1.179-0.566c-0.974-0.414-2.035-0.652-3.211-0.602
								c-2.145,0.091-3.915,0.916-5.28,2.43c-1.242,1.377-1.708,2.866-1.533,4.416c0.174,1.536,0.99,2.772,2.21,3.809
								c0.567,0.482,1.196,0.907,1.902,1.25c0.374,0.182,0.791,0.313,1.191,0.463c1.291,0.486,2.583,0.971,3.875,1.455
								c1.097,0.411,2.195,0.82,3.292,1.231c1.12,0.419,2.239,0.839,3.357,1.26c0.289,0.109,0.595,0.017,0.763-0.247
								c0.595-0.93,1.186-1.861,1.778-2.792c0.537-0.845,1.073-1.69,1.61-2.534c0.79-1.243,1.579-2.486,2.369-3.728
								c0.245-0.385,0.492-0.77,0.736-1.156c0.422-0.667,0.667-1.366,0.87-2.071c0.306-1.063,0.42-2.116,0.208-3.136
								c-0.46-2.217-1.882-3.739-4.559-4.301c-1.23-0.258-2.51-0.15-3.793,0.304c-1.384,0.49-2.466,1.296-3.318,2.332
								c-0.532,0.648-0.928,1.337-1.233,2.055C541.846,653.565,541.827,653.608,541.809,653.65z"/>
						</g>
						<g>
							<path style="fill:#E46840;" d="M450.007,620.532c-0.399-0.193-0.777-0.395-1.179-0.566c-0.974-0.414-2.035-0.652-3.211-0.602
								c-2.145,0.091-3.915,0.916-5.28,2.43c-1.242,1.377-1.708,2.866-1.533,4.416c0.174,1.537,0.99,2.772,2.21,3.809
								c0.566,0.482,1.196,0.906,1.902,1.25c0.374,0.182,0.791,0.313,1.191,0.463c1.291,0.486,2.583,0.971,3.875,1.456
								c1.097,0.411,2.195,0.82,3.292,1.231c1.12,0.419,2.239,0.839,3.357,1.26c0.289,0.109,0.595,0.017,0.763-0.247
								c0.595-0.93,1.186-1.861,1.778-2.792c0.537-0.845,1.074-1.69,1.61-2.534c0.79-1.243,1.579-2.486,2.369-3.729
								c0.245-0.385,0.491-0.77,0.736-1.156c0.422-0.667,0.667-1.366,0.87-2.07c0.306-1.063,0.419-2.117,0.208-3.136
								c-0.46-2.217-1.882-3.739-4.559-4.301c-1.23-0.258-2.51-0.15-3.793,0.304c-1.384,0.49-2.466,1.295-3.318,2.332
								c-0.532,0.648-0.928,1.337-1.233,2.055C450.043,620.447,450.025,620.49,450.007,620.532z"/>
						</g>
						<g>
							<path style="fill:#FFFFFF;" d="M557.405,563.008c-0.399-0.193-0.777-0.395-1.179-0.566c-0.974-0.414-2.035-0.652-3.211-0.602
								c-2.145,0.091-3.915,0.916-5.28,2.43c-1.242,1.377-1.708,2.866-1.533,4.416c0.174,1.537,0.99,2.772,2.21,3.809
								c0.566,0.482,1.196,0.907,1.902,1.25c0.374,0.182,0.791,0.313,1.191,0.463c1.291,0.486,2.583,0.971,3.876,1.455
								c1.097,0.411,2.195,0.82,3.292,1.231c1.12,0.419,2.239,0.839,3.357,1.26c0.289,0.109,0.595,0.017,0.764-0.247
								c0.595-0.93,1.186-1.861,1.778-2.792c0.537-0.845,1.073-1.69,1.61-2.534c0.79-1.243,1.58-2.486,2.369-3.729
								c0.245-0.385,0.492-0.77,0.736-1.156c0.422-0.667,0.667-1.366,0.87-2.07c0.306-1.063,0.419-2.117,0.208-3.136
								c-0.46-2.217-1.882-3.739-4.559-4.301c-1.23-0.258-2.51-0.15-3.793,0.304c-1.384,0.49-2.466,1.295-3.318,2.332
								c-0.532,0.648-0.928,1.337-1.233,2.055C557.442,562.924,557.423,562.966,557.405,563.008z"/>
						</g>
						<g>
							<path style="fill:#E46840;" d="M582.756,535.117c-0.077-0.437-0.133-0.862-0.229-1.287c-0.233-1.033-0.66-2.033-1.387-2.958
								c-1.327-1.688-3.031-2.642-5.057-2.866c-1.843-0.204-3.324,0.288-4.48,1.336c-1.145,1.039-1.672,2.423-1.801,4.019
								c-0.06,0.741-0.037,1.5,0.096,2.274c0.071,0.41,0.208,0.825,0.32,1.237c0.36,1.332,0.721,2.664,1.083,3.996
								c0.307,1.13,0.617,2.261,0.924,3.391c0.314,1.154,0.627,2.308,0.938,3.461c0.08,0.298,0.334,0.493,0.646,0.476
								c1.102-0.06,2.203-0.125,3.305-0.188c0.999-0.058,1.999-0.116,2.998-0.174c1.47-0.085,2.94-0.17,4.41-0.255
								c0.456-0.026,0.913-0.051,1.368-0.078c0.788-0.047,1.498-0.257,2.189-0.504c1.041-0.373,1.963-0.896,2.667-1.663
								c1.531-1.668,1.935-3.712,0.827-6.213c-0.509-1.149-1.344-2.124-2.463-2.901c-1.206-0.837-2.492-1.245-3.831-1.331
								c-0.837-0.054-1.627,0.029-2.388,0.199C582.846,535.098,582.801,535.107,582.756,535.117z"/>
						</g>
						<g>
							<path style="fill:#E46840;" d="M583.689,593.253c-0.077-0.437-0.133-0.862-0.229-1.287c-0.233-1.033-0.66-2.033-1.387-2.958
								c-1.327-1.688-3.031-2.642-5.057-2.866c-1.844-0.204-3.324,0.288-4.48,1.336c-1.145,1.039-1.671,2.423-1.801,4.019
								c-0.06,0.741-0.037,1.5,0.096,2.274c0.071,0.41,0.208,0.825,0.32,1.237c0.36,1.332,0.721,2.664,1.083,3.996
								c0.307,1.13,0.617,2.261,0.924,3.391c0.314,1.154,0.627,2.307,0.938,3.461c0.08,0.298,0.334,0.493,0.646,0.476
								c1.102-0.06,2.203-0.125,3.304-0.188c0.999-0.058,1.999-0.116,2.998-0.174c1.47-0.085,2.94-0.17,4.41-0.255
								c0.456-0.027,0.913-0.051,1.368-0.079c0.788-0.047,1.498-0.257,2.189-0.504c1.041-0.373,1.963-0.896,2.667-1.663
								c1.531-1.668,1.935-3.712,0.828-6.213c-0.509-1.149-1.344-2.125-2.463-2.901c-1.206-0.837-2.492-1.245-3.831-1.331
								c-0.836-0.054-1.627,0.029-2.388,0.199C583.779,593.234,583.733,593.244,583.689,593.253z"/>
						</g>
						<g>
							<path style="fill:#FFFFFF;" d="M512.596,533.77c-0.059-0.44-0.098-0.866-0.176-1.296c-0.19-1.041-0.576-2.058-1.264-3.012
								c-1.257-1.741-2.919-2.765-4.934-3.072c-1.833-0.279-3.333,0.151-4.531,1.15c-1.187,0.991-1.77,2.352-1.964,3.941
								c-0.091,0.738-0.099,1.497,0.003,2.276c0.054,0.413,0.174,0.833,0.269,1.249c0.305,1.346,0.611,2.691,0.917,4.037
								c0.26,1.142,0.523,2.284,0.784,3.426c0.266,1.166,0.532,2.331,0.795,3.497c0.068,0.301,0.314,0.506,0.626,0.502
								c1.104-0.015,2.206-0.034,3.309-0.052c1.001-0.016,2.002-0.033,3.002-0.05c1.472-0.025,2.945-0.049,4.417-0.073
								c0.457-0.008,0.914-0.014,1.37-0.022c0.789-0.015,1.508-0.195,2.207-0.413c1.056-0.329,1.998-0.815,2.733-1.552
								c1.598-1.604,2.087-3.629,1.082-6.174c-0.461-1.169-1.256-2.178-2.341-2.999c-1.171-0.886-2.439-1.346-3.773-1.487
								c-0.834-0.088-1.627-0.039-2.394,0.101C512.686,533.754,512.641,533.762,512.596,533.77z"/>
						</g>
						<g>
							<path style="fill:#E46840;" d="M608.774,640.469c-0.059-0.44-0.098-0.866-0.176-1.296c-0.19-1.041-0.576-2.058-1.264-3.012
								c-1.257-1.741-2.919-2.765-4.934-3.072c-1.834-0.28-3.333,0.151-4.531,1.15c-1.187,0.991-1.77,2.352-1.965,3.942
								c-0.09,0.738-0.099,1.497,0.003,2.276c0.054,0.412,0.174,0.833,0.269,1.249c0.305,1.346,0.611,2.691,0.918,4.037
								c0.26,1.142,0.523,2.284,0.784,3.426c0.266,1.166,0.532,2.331,0.795,3.497c0.068,0.301,0.313,0.506,0.626,0.502
								c1.104-0.015,2.206-0.034,3.309-0.052c1.001-0.017,2.002-0.034,3.002-0.05c1.472-0.025,2.945-0.049,4.417-0.073
								c0.457-0.008,0.914-0.013,1.37-0.022c0.789-0.015,1.508-0.195,2.207-0.413c1.055-0.329,1.998-0.814,2.733-1.552
								c1.598-1.604,2.087-3.629,1.083-6.174c-0.461-1.169-1.256-2.178-2.341-3c-1.171-0.886-2.439-1.346-3.773-1.487
								c-0.834-0.088-1.627-0.039-2.394,0.101C608.865,640.453,608.819,640.461,608.774,640.469z"/>
						</g>
						<g>
							<path style="fill:#FFFFFF;" d="M470.37,544.073c-0.23-0.099-0.448-0.203-0.678-0.29c-0.559-0.209-1.163-0.317-1.824-0.26
								c-1.206,0.105-2.183,0.613-2.915,1.5c-0.666,0.807-0.892,1.657-0.754,2.526c0.136,0.861,0.627,1.537,1.34,2.091
								c0.331,0.257,0.696,0.481,1.102,0.657c0.215,0.093,0.453,0.157,0.682,0.232c0.74,0.242,1.479,0.483,2.22,0.724
								c0.628,0.204,1.257,0.408,1.885,0.612c0.641,0.209,1.282,0.417,1.923,0.627c0.165,0.054,0.336-0.005,0.424-0.158
								c0.312-0.539,0.622-1.078,0.932-1.617c0.282-0.489,0.563-0.979,0.844-1.468c0.414-0.72,0.828-1.44,1.243-2.159
								c0.129-0.223,0.258-0.446,0.386-0.67c0.221-0.386,0.342-0.786,0.439-1.188c0.146-0.606,0.184-1.203,0.039-1.772
								c-0.314-1.238-1.153-2.06-2.675-2.31c-0.699-0.115-1.418-0.022-2.129,0.265c-0.768,0.31-1.357,0.791-1.812,1.396
								c-0.284,0.378-0.489,0.776-0.644,1.188C470.388,544.024,470.379,544.049,470.37,544.073z"/>
						</g>
						<g>
							<path style="fill:#FFFFFF;" d="M458.981,573.171c-0.063-0.391-0.109-0.771-0.19-1.152c-0.196-0.925-0.566-1.823-1.205-2.657
								c-1.166-1.523-2.676-2.394-4.483-2.618c-1.644-0.203-2.972,0.219-4.016,1.141c-1.035,0.915-1.521,2.145-1.654,3.569
								c-0.062,0.661-0.05,1.339,0.06,2.032c0.059,0.367,0.177,0.739,0.271,1.109c0.306,1.194,0.613,2.387,0.922,3.581
								c0.261,1.013,0.525,2.026,0.786,3.039c0.267,1.034,0.534,2.068,0.798,3.102c0.068,0.267,0.293,0.444,0.572,0.432
								c0.985-0.041,1.969-0.086,2.954-0.13c0.893-0.04,1.786-0.081,2.679-0.121c1.314-0.059,2.628-0.119,3.942-0.178
								c0.408-0.018,0.815-0.035,1.223-0.054c0.704-0.033,1.341-0.212,1.96-0.425c0.934-0.321,1.763-0.778,2.401-1.455
								c1.386-1.473,1.771-3.293,0.81-5.54c-0.441-1.032-1.176-1.913-2.166-2.619c-1.068-0.762-2.212-1.14-3.407-1.232
								c-0.746-0.057-1.454,0.007-2.135,0.151C459.062,573.155,459.021,573.163,458.981,573.171z"/>
						</g>
						<g>
							<path style="fill:#FFFFFF;" d="M624.12,552.197c-0.385-0.166-0.751-0.341-1.138-0.486c-0.938-0.351-1.951-0.532-3.06-0.435
								c-2.024,0.175-3.663,1.029-4.891,2.516c-1.117,1.354-1.496,2.781-1.266,4.238c0.228,1.445,1.051,2.58,2.247,3.509
								c0.556,0.432,1.168,0.807,1.85,1.103c0.361,0.156,0.761,0.263,1.145,0.388c1.241,0.406,2.482,0.811,3.724,1.215
								c1.054,0.343,2.109,0.684,3.163,1.027c1.076,0.35,2.151,0.7,3.226,1.052c0.277,0.091,0.563-0.009,0.712-0.265
								c0.524-0.904,1.043-1.809,1.564-2.713c0.473-0.821,0.945-1.642,1.417-2.463c0.695-1.208,1.39-2.415,2.085-3.623
								c0.216-0.375,0.433-0.749,0.647-1.124c0.371-0.648,0.574-1.319,0.736-1.993c0.245-1.017,0.308-2.018,0.066-2.973
								c-0.527-2.077-1.934-3.457-4.489-3.877c-1.173-0.193-2.379-0.038-3.573,0.445c-1.288,0.521-2.278,1.327-3.04,2.343
								c-0.476,0.634-0.821,1.303-1.08,1.994C624.151,552.115,624.135,552.157,624.12,552.197z"/>
						</g>
						<g>
							<path style="fill:#FFFFFF;" d="M592.407,669.881c-0.23-0.099-0.448-0.203-0.678-0.289c-0.559-0.209-1.163-0.317-1.824-0.26
								c-1.206,0.105-2.183,0.613-2.915,1.5c-0.666,0.807-0.891,1.657-0.754,2.526c0.136,0.861,0.627,1.537,1.339,2.091
								c0.331,0.257,0.696,0.481,1.102,0.657c0.215,0.093,0.453,0.157,0.682,0.232c0.74,0.242,1.479,0.483,2.22,0.724
								c0.628,0.204,1.257,0.408,1.885,0.612c0.641,0.208,1.282,0.417,1.923,0.627c0.165,0.054,0.336-0.005,0.424-0.158
								c0.312-0.539,0.622-1.078,0.932-1.617c0.282-0.489,0.563-0.979,0.844-1.468c0.414-0.72,0.828-1.44,1.242-2.159
								c0.128-0.223,0.258-0.446,0.386-0.67c0.221-0.386,0.342-0.786,0.439-1.188c0.146-0.606,0.184-1.203,0.04-1.772
								c-0.314-1.238-1.153-2.06-2.675-2.31c-0.699-0.115-1.418-0.022-2.129,0.265c-0.768,0.31-1.357,0.791-1.812,1.396
								c-0.284,0.378-0.489,0.776-0.644,1.188C592.426,669.833,592.416,669.857,592.407,669.881z"/>
						</g>
						<g>
							<path style="fill:#E46840;" d="M504.943,569.381c-0.092-0.268-0.17-0.531-0.273-0.791c-0.25-0.63-0.619-1.22-1.17-1.732
								c-1.006-0.935-2.177-1.37-3.48-1.311c-1.185,0.054-2.073,0.511-2.699,1.288c-0.621,0.77-0.817,1.698-0.74,2.719
								c0.035,0.475,0.125,0.952,0.286,1.428c0.086,0.252,0.214,0.501,0.325,0.75c0.359,0.806,0.72,1.612,1.08,2.418
								c0.306,0.684,0.614,1.368,0.92,2.052c0.313,0.698,0.625,1.396,0.936,2.095c0.08,0.18,0.26,0.278,0.456,0.237
								c0.691-0.147,1.38-0.297,2.07-0.446c0.626-0.135,1.252-0.271,1.878-0.407c0.921-0.2,1.842-0.399,2.763-0.598
								c0.286-0.062,0.572-0.123,0.857-0.185c0.493-0.108,0.922-0.311,1.334-0.535c0.621-0.339,1.152-0.761,1.521-1.315
								c0.802-1.206,0.856-2.538-0.093-4.009c-0.435-0.676-1.06-1.21-1.844-1.59c-0.846-0.41-1.699-0.54-2.554-0.461
								c-0.534,0.049-1.026,0.179-1.49,0.363C504.998,569.36,504.97,569.37,504.943,569.381z"/>
						</g>
						<g>
							<path style="fill:#E46840;" d="M619.052,586.415c-0.092-0.268-0.17-0.531-0.273-0.791c-0.25-0.63-0.619-1.22-1.17-1.732
								c-1.006-0.935-2.177-1.37-3.48-1.311c-1.185,0.054-2.073,0.511-2.699,1.288c-0.621,0.77-0.817,1.697-0.74,2.719
								c0.036,0.474,0.125,0.952,0.286,1.428c0.085,0.252,0.213,0.501,0.325,0.75c0.359,0.806,0.72,1.612,1.08,2.418
								c0.306,0.684,0.614,1.368,0.92,2.052c0.313,0.698,0.625,1.396,0.936,2.095c0.08,0.18,0.26,0.278,0.455,0.237
								c0.691-0.147,1.38-0.297,2.07-0.446c0.626-0.135,1.252-0.271,1.878-0.407c0.921-0.199,1.842-0.399,2.763-0.598
								c0.286-0.062,0.572-0.123,0.857-0.185c0.494-0.108,0.922-0.311,1.333-0.535c0.621-0.339,1.152-0.761,1.521-1.315
								c0.802-1.206,0.856-2.538-0.092-4.009c-0.436-0.676-1.06-1.21-1.844-1.59c-0.845-0.409-1.699-0.54-2.554-0.461
								c-0.534,0.049-1.026,0.179-1.49,0.363C619.107,586.394,619.079,586.405,619.052,586.415z"/>
						</g>
						<g>
							<path style="fill:#FFFFFF;" d="M499.017,623.417c-0.092-0.268-0.17-0.531-0.272-0.791c-0.25-0.63-0.619-1.22-1.17-1.732
								c-1.006-0.935-2.177-1.37-3.48-1.311c-1.185,0.054-2.073,0.511-2.699,1.288c-0.621,0.77-0.816,1.697-0.74,2.719
								c0.036,0.474,0.125,0.952,0.286,1.428c0.085,0.252,0.213,0.501,0.325,0.75c0.359,0.806,0.72,1.612,1.081,2.418
								c0.306,0.684,0.614,1.368,0.92,2.052c0.313,0.698,0.625,1.397,0.936,2.095c0.08,0.18,0.26,0.278,0.456,0.237
								c0.691-0.147,1.38-0.297,2.07-0.446c0.626-0.135,1.252-0.271,1.878-0.407c0.921-0.199,1.842-0.399,2.763-0.598
								c0.286-0.062,0.572-0.123,0.857-0.185c0.493-0.108,0.922-0.311,1.333-0.535c0.621-0.339,1.152-0.761,1.521-1.315
								c0.802-1.206,0.856-2.538-0.092-4.01c-0.435-0.676-1.06-1.21-1.844-1.589c-0.846-0.41-1.699-0.54-2.554-0.461
								c-0.534,0.049-1.026,0.179-1.49,0.363C499.072,623.396,499.044,623.406,499.017,623.417z"/>
						</g>
					</g>
					<g>
						
							<rect x="533.599" y="506.255" transform="matrix(0.9858 0.1679 -0.1679 0.9858 106.6602 -81.491)" style="fill:#8FBFAD;" width="3.152" height="167.333"/>
						
							<rect x="530.453" y="507.522" transform="matrix(0.1679 -0.9858 0.9858 0.1679 -157.0632 1030.6987)" style="fill:#8FBFAD;" width="3.152" height="201.736"/>
					</g>
				</g>
				<g>
					
						<rect x="443.34" y="486.247" transform="matrix(0.9858 0.1679 -0.1679 0.9858 91.5391 -85.3949)" style="fill:#E46840;" width="214.729" height="24.641"/>
					<g>
						<defs>
							
								<rect id="SVGID_00000023986998493621299540000000600210250819220896_" x="443.34" y="486.247" transform="matrix(0.9858 0.1679 -0.1679 0.9858 91.5391 -85.3949)" width="214.729" height="24.641"/>
						</defs>
						<clipPath id="SVGID_00000113328307364786362680000001903269188743146426_">
							<use xlink:href="#SVGID_00000023986998493621299540000000600210250819220896_"  style="overflow:visible;"/>
						</clipPath>
						<g style="clip-path:url(#SVGID_00000113328307364786362680000001903269188743146426_);">
							<line style="fill:none;stroke:#461B1B;stroke-miterlimit:10;" x1="453.691" y1="463.197" x2="505.599" y2="512.508"/>
							<line style="fill:none;stroke:#461B1B;stroke-miterlimit:10;" x1="497.955" y1="470.736" x2="549.862" y2="520.048"/>
							<line style="fill:none;stroke:#461B1B;stroke-miterlimit:10;" x1="542.218" y1="478.276" x2="594.126" y2="527.588"/>
							<line style="fill:none;stroke:#461B1B;stroke-miterlimit:10;" x1="586.482" y1="485.816" x2="638.39" y2="535.128"/>
							<line style="fill:none;stroke:#461B1B;stroke-miterlimit:10;" x1="630.746" y1="493.356" x2="682.654" y2="542.667"/>
							<line style="fill:none;stroke:#461B1B;stroke-miterlimit:10;" x1="409.427" y1="455.657" x2="461.335" y2="504.968"/>
						</g>
					</g>
				</g>
			</g>
		</g>
		<g>
			<g>
				<path style="fill:#F2BB3D;" d="M222.027,380.564c27.646-16.849,53.914,6.309,66.568,20.767
					c4.41,5.038,11.967,5.545,17.009,1.139c14.469-12.641,43.591-32.089,68.743-11.703c39.842,32.293,5.079,112.871-86.321,146.571
					C201.938,491.749,178.233,407.254,222.027,380.564z"/>
				<path style="fill:none;stroke:#461B1B;stroke-miterlimit:10;" d="M355.644,461.906c-10.841,20.337-33.432,40.8-66.164,52.869"/>
				<polygon style="fill:#F2BB3D;" points="288.435,532.075 276.745,552.276 298.461,552.276 				"/>
				<line style="fill:none;stroke:#461B1B;stroke-miterlimit:10;" x1="287.792" y1="535.966" x2="288.996" y2="747.383"/>
			</g>
			<g>
				<g>
					<g>
						<g>
							<path style="fill:#FF4564;" d="M410.196,927.538l-158.444,37.116c-5.462,1.279-10.926-2.111-12.206-7.573L202.43,798.637
								c-1.279-5.462,2.111-10.926,7.573-12.206l158.444-37.116c5.462-1.28,10.927,2.111,12.206,7.573l37.117,158.444
								C419.048,920.793,415.658,926.258,410.196,927.538z"/>
							<path style="fill:#E46840;" d="M410.196,927.538l-158.444,37.116c-5.462,1.279-10.926-2.111-12.206-7.573L202.43,798.637
								c-1.279-5.462,2.111-10.926,7.573-12.206l158.444-37.116c5.462-1.28,10.927,2.111,12.206,7.573l37.117,158.444
								C419.048,920.793,415.658,926.258,410.196,927.538z"/>
							<g>
								<defs>
									<path id="SVGID_00000057846687309942791750000000003240962602046119_" d="M410.196,927.538l-158.444,37.116
										c-5.462,1.279-10.926-2.111-12.206-7.573L202.43,798.637c-1.279-5.462,2.111-10.926,7.573-12.206l158.444-37.116
										c5.462-1.28,10.927,2.111,12.206,7.573l37.117,158.444C419.048,920.793,415.658,926.258,410.196,927.538z"/>
								</defs>
								<clipPath id="SVGID_00000033353826426890666540000010279543511576596889_">
									<use xlink:href="#SVGID_00000057846687309942791750000000003240962602046119_"  style="overflow:visible;"/>
								</clipPath>
								<path style="clip-path:url(#SVGID_00000033353826426890666540000010279543511576596889_);fill:#FFFFFF;" d="
									M239.441,854.237c-3.198-2.763-8.386-1.971-11.116,1.052c-0.335,0.37-2.033,2.332-3.075,4.254
									c-1.79-1.257-4.174-2.259-4.638-2.442c-3.79-1.491-8.788,0.11-10.421,4.009c-1.83,4.368,1.549,8.824,4.514,11.75
									c3.384,3.34,7.613,6.008,12.017,7.785c1.287,0.519,2.37,1.109,3.759,1.232l0.004,0.015c0.007-0.004,0.012-0.008,0.019-0.012
									c0.007,0.001,0.014,0.002,0.022,0.003l-0.003-0.015c1.189-0.729,1.896-1.74,2.817-2.778
									c3.152-3.552,5.751-7.825,7.292-12.322C241.983,862.827,243.024,857.333,239.441,854.237z"/>
								<path style="clip-path:url(#SVGID_00000033353826426890666540000010279543511576596889_);fill:#FFFFFF;" d="
									M402.189,800.445c-3.198-2.763-8.386-1.971-11.116,1.052c-0.335,0.37-2.033,2.332-3.075,4.254
									c-1.79-1.257-4.174-2.259-4.638-2.442c-3.79-1.491-8.788,0.11-10.421,4.009c-1.83,4.368,1.549,8.824,4.514,11.75
									c3.384,3.34,7.613,6.008,12.017,7.785c1.287,0.519,2.37,1.109,3.759,1.232l0.004,0.015c0.007-0.004,0.012-0.008,0.019-0.012
									c0.007,0.001,0.014,0.002,0.022,0.003l-0.004-0.015c1.189-0.729,1.896-1.74,2.817-2.778
									c3.151-3.553,5.75-7.825,7.292-12.322C404.731,809.035,405.772,803.541,402.189,800.445z"/>
								<path style="clip-path:url(#SVGID_00000033353826426890666540000010279543511576596889_);fill:#FFFFFF;" d="M400.111,863.6
									c-3.198-2.763-8.386-1.971-11.115,1.052c-0.335,0.37-2.033,2.332-3.075,4.254c-1.79-1.257-4.174-2.259-4.638-2.441
									c-3.79-1.491-8.788,0.11-10.421,4.009c-1.83,4.368,1.549,8.824,4.514,11.75c3.384,3.34,7.613,6.008,12.017,7.785
									c1.287,0.519,2.37,1.109,3.759,1.232l0.004,0.015c0.007-0.004,0.012-0.008,0.019-0.012c0.007,0.001,0.014,0.002,0.022,0.003
									l-0.003-0.015c1.189-0.729,1.896-1.74,2.817-2.778c3.152-3.552,5.75-7.825,7.292-12.322
									C402.653,872.19,403.694,866.695,400.111,863.6z"/>
								<path style="clip-path:url(#SVGID_00000033353826426890666540000010279543511576596889_);fill:#FFFFFF;" d="
									M285.135,882.097c-3.198-2.763-8.386-1.971-11.116,1.052c-0.335,0.37-2.033,2.332-3.075,4.254
									c-1.79-1.257-4.174-2.259-4.638-2.442c-3.79-1.491-8.788,0.11-10.421,4.009c-1.83,4.368,1.549,8.824,4.514,11.75
									c3.384,3.34,7.613,6.008,12.017,7.785c1.287,0.519,2.37,1.109,3.759,1.232l0.004,0.015c0.007-0.004,0.012-0.008,0.019-0.012
									c0.007,0.001,0.014,0.002,0.022,0.003l-0.004-0.015c1.189-0.729,1.896-1.74,2.817-2.778
									c3.151-3.552,5.75-7.825,7.292-12.322C287.677,890.688,288.718,885.193,285.135,882.097z"/>
								<path style="clip-path:url(#SVGID_00000033353826426890666540000010279543511576596889_);fill:#FFFFFF;" d="
									M248.232,932.922c-3.198-2.763-8.386-1.971-11.115,1.052c-0.335,0.37-2.033,2.332-3.075,4.254
									c-1.79-1.257-4.174-2.259-4.638-2.442c-3.79-1.491-8.788,0.11-10.421,4.009c-1.83,4.368,1.549,8.824,4.514,11.75
									c3.384,3.34,7.613,6.008,12.017,7.785c1.287,0.519,2.37,1.109,3.759,1.232l0.004,0.015c0.007-0.004,0.012-0.008,0.019-0.012
									c0.007,0.001,0.014,0.002,0.022,0.003l-0.004-0.015c1.189-0.729,1.896-1.74,2.817-2.778
									c3.152-3.552,5.75-7.825,7.292-12.322C250.775,941.512,251.816,936.018,248.232,932.922z"/>
								<path style="clip-path:url(#SVGID_00000033353826426890666540000010279543511576596889_);fill:#FFFFFF;" d="
									M310.548,933.991c-3.198-2.763-8.386-1.971-11.116,1.052c-0.335,0.37-2.033,2.332-3.075,4.254
									c-1.79-1.257-4.174-2.259-4.638-2.441c-3.79-1.491-8.788,0.11-10.421,4.009c-1.83,4.368,1.549,8.824,4.514,11.75
									c3.384,3.34,7.613,6.008,12.017,7.785c1.287,0.519,2.37,1.109,3.759,1.232l0.004,0.015c0.007-0.004,0.012-0.008,0.019-0.012
									c0.007,0.001,0.014,0.002,0.022,0.003l-0.004-0.015c1.189-0.729,1.896-1.74,2.817-2.778
									c3.151-3.552,5.75-7.825,7.292-12.322C313.09,942.581,314.131,937.087,310.548,933.991z"/>
								<path style="clip-path:url(#SVGID_00000033353826426890666540000010279543511576596889_);fill:#FFFFFF;" d="
									M296.985,822.077c-3.198-2.763-8.386-1.971-11.116,1.052c-0.335,0.37-2.033,2.332-3.075,4.254
									c-1.79-1.257-4.174-2.259-4.638-2.441c-3.79-1.491-8.788,0.11-10.421,4.009c-1.83,4.368,1.549,8.824,4.514,11.75
									c3.384,3.34,7.613,6.008,12.017,7.785c1.287,0.519,2.37,1.109,3.759,1.232l0.004,0.015c0.007-0.004,0.012-0.008,0.019-0.012
									c0.007,0.001,0.014,0.002,0.022,0.003l-0.003-0.015c1.189-0.729,1.896-1.74,2.817-2.778
									c3.152-3.552,5.75-7.825,7.292-12.322C299.528,830.667,300.569,825.173,296.985,822.077z"/>
								<path style="clip-path:url(#SVGID_00000033353826426890666540000010279543511576596889_);fill:#FFFFFF;" d="
									M354.404,835.203c-3.198-2.763-8.386-1.971-11.116,1.052c-0.334,0.37-2.033,2.331-3.075,4.254
									c-1.789-1.257-4.174-2.259-4.638-2.442c-3.79-1.49-8.788,0.111-10.421,4.009c-1.83,4.368,1.549,8.824,4.514,11.75
									c3.383,3.34,7.613,6.008,12.017,7.785c1.287,0.52,2.371,1.109,3.76,1.232l0.004,0.015c0.007-0.004,0.012-0.008,0.019-0.012
									c0.008,0.001,0.015,0.002,0.022,0.003l-0.004-0.015c1.189-0.729,1.896-1.739,2.817-2.778
									c3.151-3.552,5.75-7.825,7.292-12.322C356.947,843.794,357.988,838.3,354.404,835.203z"/>
								<path style="clip-path:url(#SVGID_00000033353826426890666540000010279543511576596889_);fill:#FFFFFF;" d="
									M381.585,913.132c-3.198-2.763-8.386-1.971-11.115,1.052c-0.335,0.37-2.033,2.332-3.075,4.254
									c-1.79-1.257-4.174-2.259-4.638-2.442c-3.79-1.491-8.788,0.11-10.421,4.009c-1.83,4.368,1.549,8.824,4.514,11.75
									c3.384,3.34,7.613,6.008,12.017,7.785c1.287,0.519,2.37,1.109,3.759,1.232l0.004,0.015c0.007-0.004,0.012-0.008,0.019-0.012
									c0.007,0.001,0.014,0.002,0.022,0.003l-0.003-0.015c1.189-0.729,1.896-1.74,2.817-2.778
									c3.151-3.552,5.75-7.825,7.292-12.322C384.128,921.722,385.169,916.228,381.585,913.132z"/>
							</g>
							<path style="fill:#FFFFFF;" d="M391.744,782.02l-189.232,44.329c-5.478,1.283-10.958-2.117-12.242-7.595l-6.593-28.146
								c-1.283-5.478,2.117-10.958,7.595-12.242l189.232-44.329c5.478-1.283,10.958,2.117,12.242,7.595l6.594,28.146
								C400.622,775.256,397.222,780.737,391.744,782.02z"/>
							<g>
								<defs>
									<path id="SVGID_00000177459170700008012830000018225375034515153288_" d="M391.744,782.02l-189.232,44.329
										c-5.478,1.283-10.958-2.117-12.242-7.595l-6.593-28.146c-1.283-5.478,2.117-10.958,7.595-12.242l189.232-44.329
										c5.478-1.283,10.958,2.117,12.242,7.595l6.594,28.146C400.622,775.256,397.222,780.737,391.744,782.02z"/>
								</defs>
								<clipPath id="SVGID_00000011740126669640839050000007740203759671103917_">
									<use xlink:href="#SVGID_00000177459170700008012830000018225375034515153288_"  style="overflow:visible;"/>
								</clipPath>
								<g style="clip-path:url(#SVGID_00000011740126669640839050000007740203759671103917_);">
									<line style="fill:none;stroke:#461B1B;stroke-miterlimit:10;" x1="184.135" y1="767.183" x2="260.218" y2="831.31"/>
									<line style="fill:none;stroke:#461B1B;stroke-miterlimit:10;" x1="227.853" y1="756.942" x2="303.936" y2="821.069"/>
									<line style="fill:none;stroke:#461B1B;stroke-miterlimit:10;" x1="271.571" y1="746.701" x2="347.653" y2="810.828"/>
									<line style="fill:none;stroke:#461B1B;stroke-miterlimit:10;" x1="315.288" y1="736.46" x2="391.371" y2="800.587"/>
									<line style="fill:none;stroke:#461B1B;stroke-miterlimit:10;" x1="359.006" y1="726.219" x2="435.089" y2="790.346"/>
									<line style="fill:none;stroke:#461B1B;stroke-miterlimit:10;" x1="140.417" y1="777.424" x2="216.5" y2="841.551"/>
								</g>
							</g>
							
								<rect x="207.514" y="803.831" transform="matrix(0.9736 -0.2281 0.2281 0.9736 -176.8101 89.5497)" style="fill:#BF4B27;" width="183.056" height="11.867"/>
							
								<rect x="305.717" y="801.945" transform="matrix(0.9736 -0.2281 0.2281 0.9736 -191.2896 94.7553)" style="fill:#8FBFAD;" width="17.209" height="146.124"/>
							
								<rect x="282.381" y="755.144" transform="matrix(0.9736 -0.2281 0.2281 0.9736 -170.225 87.1606)" style="fill:#8FBFAD;" width="19.235" height="49.869"/>
							<path style="fill:#8FBFAD;" d="M219.953,757.899c-3.878-0.377-8.325-1.234-9.623-4.569c-0.645-1.658-0.332-3.59,0.029-5.431
								c2.51-12.809,6.986-25.5,13.245-37.549c1.159-2.231,2.457-4.531,4.572-6.083c2.792-2.05,6.477-2.39,9.749-2.037
								c11.784,1.269,20.116,9.853,26.9,18.38c8.69,10.924,16.465,22.578,23.08,34.824
								C269.09,763.807,239.288,759.781,219.953,757.899z"/>
							<path style="fill:#8FBFAD;" d="M346.832,728.177c3.307-2.061,6.911-4.803,6.592-8.367c-0.158-1.772-1.297-3.364-2.438-4.853
								c-7.938-10.362-17.585-19.744-28.544-27.76c-2.029-1.484-4.213-2.969-6.798-3.42c-3.412-0.596-6.864,0.735-9.64,2.505
								c-9.994,6.37-13.647,17.762-15.938,28.415c-2.935,13.647-4.725,27.541-5.212,41.451
								C305.433,755.293,330.345,738.45,346.832,728.177z"/>
							<path style="fill:#6CA38F;" d="M302.454,752.321l-30.466,7.137c-1.971-8.413,3.252-16.83,11.664-18.801
								C292.065,738.686,300.483,743.908,302.454,752.321z"/>
							<path style="fill:none;stroke:#461B1B;stroke-miterlimit:10;" d="M292.807,741.78c3.43-5.499,7.309-10.718,11.585-15.588"/>
							<path style="fill:none;stroke:#461B1B;stroke-miterlimit:10;" d="M295.061,744.569c5.432-3.129,10.864-6.259,16.296-9.388"/>
							<path style="fill:none;stroke:#461B1B;stroke-miterlimit:10;" d="M259.044,748.931c7.139,0.712,12.79-1.444,19.929-0.731
								c-5.474-3.482-11.267-6.461-17.283-8.89"/>
						</g>
						
							<rect x="290.458" y="804.157" transform="matrix(0.9736 -0.2281 0.2281 0.9736 -176.8464 89.5561)" style="fill:#6CA38F;" width="17.2" height="11.561"/>
					</g>
					<line style="fill:none;stroke:#461B1B;stroke-miterlimit:10;" x1="329.737" y1="941.657" x2="322.1" y2="909.052"/>
					<line style="fill:none;stroke:#461B1B;stroke-miterlimit:10;" x1="306.409" y1="842.073" x2="297.829" y2="805.443"/>
				</g>
				<path style="fill:none;stroke:#461B1B;stroke-miterlimit:10;" d="M303.457,702.305c1.96-5.534,6.471-10.105,11.979-12.137"/>
				<path style="fill:none;stroke:#461B1B;stroke-miterlimit:10;" d="M246.109,718.374c-4.214-4.088-10.286-6.179-16.123-5.554"/>
			</g>
		</g>
		<g>
			<g>
				<path style="fill:#CD9EF7;" d="M677.542,296.91c31.034-18.913,60.52,7.082,74.724,23.312c4.95,5.656,13.433,6.224,19.093,1.279
					c16.242-14.19,48.932-36.021,77.166-13.137c44.724,36.249,5.701,126.701-96.898,164.53
					C654.992,421.719,628.382,326.871,677.542,296.91z"/>
				<path style="fill:none;stroke:#461B1B;stroke-miterlimit:10;" d="M827.531,388.219c-12.169,22.829-37.528,45.799-74.272,59.347"
					/>
				<polygon style="fill:#CD9EF7;" points="752.087,466.986 738.965,489.663 763.342,489.663 				"/>
				<line style="fill:none;stroke:#461B1B;stroke-miterlimit:10;" x1="751.365" y1="471.354" x2="752.717" y2="708.676"/>
			</g>
			<g>
				<path style="fill:#8FBFAD;" d="M666.965,729.418l-16.899,19.733l3.403,7.888l173.997-44.399l40.897,171.368l16.801-12.617
					c3.247-3.255,4.58-7.957,3.526-12.432l-40.305-171.083c-0.971-4.122-5.136-6.646-9.24-5.599l-164.741,42.037
					C671.399,725.08,668.762,726.889,666.965,729.418z"/>
				<polygon style="fill:#CD9EF7;" points="650.066,749.151 825.409,704.41 825.409,704.41 869.572,883.524 869.572,883.524 
					694.229,928.267 694.229,928.267 650.066,749.151 				"/>
				<polyline style="fill:none;stroke:#461B1B;stroke-miterlimit:10;" points="774.751,907.895 728.438,726.396 738.094,708.062 
									"/>
				<polyline style="fill:none;stroke:#461B1B;stroke-miterlimit:10;" points="662.332,734.81 838.762,689.79 885.104,871.406 				
					"/>
				<path style="fill:#0E0E10;" d="M766.213,687.596c-2.434-1.23-5.663-0.368-8.036,0.57c-5.823,2.302-10.692,7.145-14.678,11.839
					c-2.138,2.518-4.067,5.182-5.88,7.927c2.027-4.381,4.064-8.757,6.06-13.152c1.302-2.868,2.856-5.735,3.832-8.735
					c0.745-2.29,0.822-4.985-0.804-6.933c-1.578-1.889-4.128-1.914-6.222-0.928c-2.428,1.144-4.121,3.487-5.364,5.786
					c-2.645,4.894-3.603,10.478-3.767,15.986c-0.083,2.815,0.052,5.625,0.274,8.431c0.059,0.744,0.132,1.49,0.217,2.233
					c-0.281-0.693-0.575-1.382-0.879-2.064c-1.149-2.569-2.377-5.101-3.799-7.531c-2.782-4.757-6.299-9.199-10.966-12.227
					c-2.192-1.422-4.801-2.667-7.481-2.508c-2.31,0.137-4.536,1.382-5.016,3.796c-0.495,2.489,0.864,4.818,2.616,6.47
					c2.294,2.166,5.031,3.938,7.548,5.831c3.858,2.901,7.743,5.766,11.621,8.641c-2.906-1.541-5.877-2.954-8.959-4.14
					c-5.748-2.211-12.343-4.129-18.556-3.359c-2.532,0.314-5.78,1.104-7.327,3.35c-1.647,2.391,0.103,4.911,2.065,6.413
					c4.791,3.667,11.203,4.271,17.015,4.707c7.726,0.579,15.473,0.316,23.151-0.695c0.001,0.017,0.004,0.033,0.005,0.05
					c0.014,0.33,0.515,0.345,0.517,0.01c0-0.054-0.005-0.107-0.006-0.161c0.048-0.022,0.071-0.061,0.107-0.091
					c0.046,0.01,0.086,0.032,0.137,0.029c0.026,0.048,0.045,0.097,0.072,0.144c0.163,0.293,0.596,0.04,0.449-0.257
					c-0.007-0.015-0.012-0.031-0.019-0.046c7.224-2.791,14.15-6.272,20.653-10.482c4.893-3.168,10.232-6.771,12.68-12.285
					C768.476,691.955,768.804,688.905,766.213,687.596z M713.87,716.74c-5.581-0.228-11.704-0.453-16.924-2.645
					c-2.016-0.846-6.308-2.979-5.515-5.738c0.694-2.415,4.425-3.174,6.515-3.464c5.799-0.806,11.997,0.91,17.414,2.861
					c5.862,2.111,11.431,5.04,16.742,8.289C726.057,716.751,719.952,716.988,713.87,716.74z M718.593,704.405
					c-2.399-1.811-4.8-3.617-7.203-5.423c-2.13-1.601-4.879-3.196-6.052-5.701c-1.121-2.394-0.247-5.017,2.467-5.629
					c2.608-0.588,5.333,0.667,7.5,2.004c4.322,2.667,7.662,6.617,10.335,10.884c1.492,2.382,2.808,4.877,4.039,7.402
					c1.09,2.238,2.276,4.537,2.856,6.974C727.885,711.415,723.237,707.912,718.593,704.405z M733.3,714.721
					c-0.659-2.417-0.719-5.003-0.835-7.49c-0.13-2.806-0.171-5.627-0.002-8.433c0.302-5.025,1.34-10.093,3.857-14.504
					c1.262-2.212,3.053-4.62,5.623-5.353c2.676-0.763,4.7,1.12,4.863,3.759c0.171,2.761-1.478,5.479-2.581,7.904
					c-1.244,2.736-2.486,5.472-3.724,8.211C738.105,704.119,735.703,709.42,733.3,714.721z M764.144,696.949
					c-3.531,4.425-8.798,7.556-13.588,10.43c-5.219,3.131-10.691,5.849-16.337,8.124c3.105-5.396,6.59-10.636,10.723-15.297
					c3.82-4.308,8.438-8.784,13.914-10.855c1.973-0.747,5.612-1.868,7.379-0.081C768.253,691.311,765.508,695.24,764.144,696.949z"
					/>
				<g>
					<g>
						
							<line style="fill:none;stroke:#0E0E10;stroke-linecap:round;stroke-linejoin:round;stroke-miterlimit:10;" x1="742.567" y1="868.463" x2="745.372" y2="889.776"/>
						
							<line style="fill:none;stroke:#0E0E10;stroke-linecap:round;stroke-linejoin:round;stroke-miterlimit:10;" x1="750.513" y1="870.592" x2="737.426" y2="887.646"/>
						
							<line style="fill:none;stroke:#0E0E10;stroke-linecap:round;stroke-linejoin:round;stroke-miterlimit:10;" x1="754.626" y1="877.717" x2="733.313" y2="880.521"/>
						
							<line style="fill:none;stroke:#0E0E10;stroke-linecap:round;stroke-linejoin:round;stroke-miterlimit:10;" x1="752.496" y1="885.663" x2="735.443" y2="872.575"/>
					</g>
					<g>
						
							<line style="fill:none;stroke:#0E0E10;stroke-linecap:round;stroke-linejoin:round;stroke-miterlimit:10;" x1="687.484" y1="765.758" x2="690.288" y2="787.071"/>
						
							<line style="fill:none;stroke:#0E0E10;stroke-linecap:round;stroke-linejoin:round;stroke-miterlimit:10;" x1="695.43" y1="767.888" x2="682.342" y2="784.942"/>
						
							<line style="fill:none;stroke:#0E0E10;stroke-linecap:round;stroke-linejoin:round;stroke-miterlimit:10;" x1="699.543" y1="775.013" x2="678.229" y2="777.817"/>
						
							<line style="fill:none;stroke:#0E0E10;stroke-linecap:round;stroke-linejoin:round;stroke-miterlimit:10;" x1="697.413" y1="782.959" x2="680.359" y2="769.871"/>
					</g>
					<g>
						
							<line style="fill:none;stroke:#0E0E10;stroke-linecap:round;stroke-linejoin:round;stroke-miterlimit:10;" x1="797.973" y1="734.98" x2="800.777" y2="756.294"/>
						
							<line style="fill:none;stroke:#0E0E10;stroke-linecap:round;stroke-linejoin:round;stroke-miterlimit:10;" x1="805.919" y1="737.11" x2="792.831" y2="754.164"/>
						
							<line style="fill:none;stroke:#0E0E10;stroke-linecap:round;stroke-linejoin:round;stroke-miterlimit:10;" x1="810.032" y1="744.235" x2="788.719" y2="747.039"/>
						
							<line style="fill:none;stroke:#0E0E10;stroke-linecap:round;stroke-linejoin:round;stroke-miterlimit:10;" x1="807.902" y1="752.181" x2="790.848" y2="739.093"/>
					</g>
					<g>
						
							<line style="fill:none;stroke:#0E0E10;stroke-linecap:round;stroke-linejoin:round;stroke-miterlimit:10;" x1="792.467" y1="810.069" x2="795.271" y2="831.383"/>
						
							<line style="fill:none;stroke:#0E0E10;stroke-linecap:round;stroke-linejoin:round;stroke-miterlimit:10;" x1="800.413" y1="812.199" x2="787.325" y2="829.253"/>
						
							<line style="fill:none;stroke:#0E0E10;stroke-linecap:round;stroke-linejoin:round;stroke-miterlimit:10;" x1="804.526" y1="819.324" x2="783.212" y2="822.128"/>
						
							<line style="fill:none;stroke:#0E0E10;stroke-linecap:round;stroke-linejoin:round;stroke-miterlimit:10;" x1="802.396" y1="827.27" x2="785.342" y2="814.182"/>
					</g>
					<path style="fill:#FFFFFF;" d="M774.831,733.678c0.172,1.31-0.75,2.512-2.06,2.684c-1.31,0.172-2.512-0.75-2.684-2.06
						c-0.172-1.31,0.75-2.512,2.06-2.684C773.457,731.446,774.658,732.368,774.831,733.678z"/>
					<path style="fill:#FFFFFF;" d="M718.629,815.711c0.172,1.31-0.75,2.512-2.06,2.684c-1.31,0.172-2.512-0.75-2.684-2.06
						c-0.172-1.31,0.75-2.512,2.06-2.684C717.255,813.479,718.456,814.401,718.629,815.711z"/>
					<path style="fill:#FFFFFF;" d="M687.857,824.032c0.138,1.048-0.6,2.009-1.648,2.147c-1.048,0.138-2.009-0.6-2.147-1.648
						c-0.138-1.048,0.6-2.009,1.648-2.147C686.758,822.246,687.719,822.984,687.857,824.032z"/>
					<path style="fill:#FFFFFF;" d="M839.379,871.784c0.138,1.048-0.6,2.009-1.648,2.147c-1.048,0.138-2.009-0.6-2.147-1.648
						c-0.138-1.048,0.6-2.009,1.648-2.147C838.28,869.998,839.242,870.736,839.379,871.784z"/>
					<path style="fill:#FFFFFF;" d="M716.432,758.925c0.138,1.048-0.6,2.009-1.648,2.147c-1.048,0.138-2.009-0.6-2.147-1.648
						c-0.138-1.048,0.6-2.009,1.648-2.147C715.332,757.14,716.294,757.877,716.432,758.925z"/>
					<path style="fill:#FFFFFF;" d="M830.506,830.423c0.138,1.048-0.6,2.009-1.648,2.147c-1.048,0.138-2.009-0.6-2.147-1.648
						c-0.138-1.048,0.6-2.009,1.648-2.147C829.407,828.637,830.369,829.375,830.506,830.423z"/>
					<path style="fill:#FFFFFF;" d="M709.463,902.958c0.241,1.834-1.05,3.516-2.884,3.758c-1.834,0.241-3.516-1.05-3.758-2.884
						c-0.241-1.834,1.05-3.516,2.884-3.758C707.539,899.833,709.222,901.124,709.463,902.958z"/>
					<path style="fill:#F2BB3D;" d="M821.386,780.405c0.398,3.022-1.73,5.794-4.752,6.191c-3.022,0.398-5.794-1.73-6.191-4.752
						c-0.397-3.021,1.73-5.794,4.752-6.191C818.217,775.256,820.988,777.383,821.386,780.405z"/>
					<path style="fill:#F2BB3D;" d="M772.79,759.079c0.398,3.022-1.73,5.794-4.752,6.191c-3.022,0.398-5.794-1.729-6.191-4.751
						c-0.398-3.022,1.73-5.794,4.752-6.191C769.621,753.93,772.393,756.057,772.79,759.079z"/>
					<path style="fill:#F2BB3D;" d="M712.249,857.65c0.398,3.022-1.73,5.794-4.752,6.191c-3.022,0.398-5.794-1.73-6.191-4.752
						c-0.397-3.022,1.73-5.794,4.752-6.191C709.08,852.501,711.852,854.628,712.249,857.65z"/>
					<path style="fill:#F2BB3D;" d="M812.014,875.295c0.398,3.022-1.73,5.794-4.752,6.191c-3.021,0.398-5.794-1.73-6.191-4.752
						c-0.398-3.022,1.73-5.794,4.751-6.191C808.845,870.146,811.617,872.273,812.014,875.295z"/>
				</g>
			</g>
		</g>
	</g>
	<g>
		<g>
			<path style="fill:#FFFFFF;" d="M1474.09,107.302l1.082,0.443l-1.131,0.442c-7.131,2.231-12.154,7.664-14.501,14.758l-0.304,0.6
				l-0.244-0.438c-2.374-7.362-7.898-13.235-15.335-15.362l-0.363-0.141l0.904-0.252c7.094-2.347,12.638-7.7,14.869-14.83
				l0.169-0.86l0.365,1.392C1461.919,99.879,1467.166,104.934,1474.09,107.302z"/>
			<path style="fill:#FFFFFF;" d="M1050.414,888.028l1.082,0.443l-1.131,0.442c-7.131,2.231-12.154,7.664-14.501,14.758l-0.304,0.6
				l-0.244-0.438c-2.374-7.362-7.898-13.235-15.335-15.362l-0.363-0.141l0.904-0.252c7.093-2.347,12.638-7.7,14.869-14.83
				l0.169-0.86l0.365,1.392C1038.243,880.605,1043.49,885.66,1050.414,888.028z"/>
			<path style="fill:#FFFFFF;" d="M1773.209,368.3l1.082,0.443l-1.131,0.442c-7.131,2.231-12.155,7.664-14.501,14.758l-0.304,0.6
				l-0.244-0.438c-2.374-7.362-7.898-13.235-15.335-15.362l-0.363-0.141l0.904-0.252c7.094-2.347,12.638-7.7,14.869-14.83
				l0.169-0.86l0.365,1.392C1761.038,360.877,1766.285,365.932,1773.209,368.3z"/>
			<path style="fill:#FFFFFF;" d="M1550.751,949.568l1.082,0.443l-1.131,0.442c-7.131,2.231-12.155,7.664-14.501,14.758l-0.304,0.6
				l-0.244-0.439c-2.374-7.362-7.898-13.235-15.335-15.362l-0.363-0.141l0.904-0.252c7.094-2.347,12.638-7.7,14.869-14.83
				l0.169-0.86l0.365,1.392C1538.58,942.146,1543.827,947.201,1550.751,949.568z"/>
			<path style="fill:#FFFFFF;" d="M607.237,874.511l1.082,0.443l-1.131,0.442c-7.131,2.231-12.154,7.665-14.501,14.758l-0.304,0.6
				l-0.244-0.439c-2.374-7.362-7.898-13.235-15.335-15.362l-0.363-0.141l0.904-0.252c7.094-2.347,12.638-7.7,14.869-14.83
				l0.169-0.86l0.365,1.392C595.066,867.088,600.313,872.143,607.237,874.511z"/>
			<path style="fill:#FFFFFF;" d="M144.641,905.281l1.082,0.443l-1.131,0.442c-7.131,2.231-12.154,7.664-14.501,14.758l-0.304,0.6
				l-0.244-0.438c-2.373-7.362-7.898-13.235-15.335-15.362l-0.363-0.141l0.904-0.252c7.093-2.347,12.638-7.7,14.869-14.83
				l0.169-0.86l0.365,1.392C132.47,897.858,137.717,902.913,144.641,905.281z"/>
			<path style="fill:#FFFFFF;" d="M303.439,185.472l2.098,0.859l-2.193,0.858c-13.831,4.328-23.576,14.867-28.127,28.626
				l-0.59,1.165l-0.474-0.851c-4.604-14.281-15.32-25.671-29.745-29.798l-0.704-0.274l1.754-0.489
				c13.759-4.553,24.513-14.935,28.841-28.766l0.329-1.668l0.707,2.7C279.831,171.074,290.009,180.879,303.439,185.472z"/>
			<path style="fill:#FFFFFF;" d="M974.75,367.847l2.098,0.859l-2.193,0.858c-13.831,4.328-23.576,14.867-28.127,28.626l-0.59,1.165
				l-0.474-0.851c-4.604-14.281-15.319-25.671-29.745-29.798l-0.704-0.274l1.753-0.489c13.759-4.553,24.513-14.935,28.841-28.766
				l0.329-1.668l0.707,2.7C951.142,353.449,961.319,363.254,974.75,367.847z"/>
			<path style="fill:#FFFFFF;" d="M523.926,839.823l2.098,0.859l-2.193,0.858c-13.831,4.328-23.576,14.867-28.127,28.626
				l-0.59,1.164l-0.474-0.851c-4.604-14.281-15.319-25.671-29.745-29.798l-0.704-0.274l1.754-0.489
				c13.759-4.553,24.513-14.935,28.841-28.766l0.329-1.668l0.707,2.7C500.318,825.425,510.496,835.231,523.926,839.823z"/>
			<path style="fill:#FFFFFF;" d="M364.229,248.362l1.082,0.443l-1.131,0.442c-7.131,2.231-12.155,7.664-14.501,14.758l-0.304,0.6
				l-0.244-0.439c-2.374-7.362-7.898-13.235-15.335-15.362l-0.363-0.141l0.904-0.252c7.093-2.347,12.638-7.7,14.869-14.83
				l0.169-0.86l0.365,1.392C352.057,240.939,357.305,245.995,364.229,248.362z"/>
		</g>
		<g>
			<path style="fill:#E878BB;" d="M144.013,89.972c6.896,0,9.722,5.629,9.722,5.629s2.826-5.629,9.722-5.629
				c6.896,0,10.475,6.71,10.475,12.003c0,8.387-9.143,15.52-20.197,23.621c-11.054-8.102-20.197-15.234-20.197-23.621
				C133.538,96.682,137.117,89.972,144.013,89.972z"/>
			<path style="fill:#E878BB;" d="M1691.483,956.675c6.896,0,9.722,5.629,9.722,5.629s2.826-5.629,9.722-5.629
				c6.896,0,10.475,6.71,10.475,12.003c0,8.387-9.143,15.52-20.197,23.622c-11.054-8.102-20.197-15.234-20.197-23.622
				C1681.008,963.385,1684.587,956.675,1691.483,956.675z"/>
			<path style="fill:#E878BB;" d="M147.012,671.779c6.896,0,9.722,5.629,9.722,5.629s2.826-5.629,9.722-5.629
				c6.896,0,10.475,6.71,10.475,12.003c0,8.387-9.143,15.52-20.197,23.621c-11.054-8.102-20.197-15.234-20.197-23.621
				C136.537,678.489,140.116,671.779,147.012,671.779z"/>
			<path style="fill:#E878BB;" d="M1358.597,149.952c6.896,0,9.722,5.629,9.722,5.629s2.826-5.629,9.722-5.629
				c6.896,0,10.475,6.71,10.475,12.003c0,8.387-9.143,15.52-20.197,23.622c-11.054-8.102-20.197-15.234-20.197-23.622
				C1348.122,156.661,1351.701,149.952,1358.597,149.952z"/>
			<path style="fill:#8FBFAD;" d="M1813.952,264.898c9.371,0,13.21,7.648,13.21,7.648s3.839-7.648,13.21-7.648
				c9.371,0,14.233,9.117,14.233,16.31c0,11.397-12.423,21.088-27.443,32.097c-15.02-11.008-27.443-20.7-27.443-32.097
				C1799.719,274.016,1804.581,264.898,1813.952,264.898z"/>
			<path style="fill:#8FBFAD;" d="M729.966,237.596c6.078,0,8.568,4.961,8.568,4.961s2.49-4.961,8.568-4.961
				c6.078,0,9.232,5.914,9.232,10.579c0,7.392-8.058,13.679-17.801,20.819c-9.743-7.141-17.801-13.427-17.801-20.819
				C720.734,243.51,723.888,237.596,729.966,237.596z"/>
			<path style="fill:#8FBFAD;" d="M1080.846,921.362c6.078,0,8.568,4.961,8.568,4.961s2.49-4.961,8.569-4.961
				c6.078,0,9.232,5.914,9.232,10.579c0,7.392-8.058,13.679-17.801,20.819c-9.743-7.141-17.801-13.427-17.801-20.819
				C1071.614,927.276,1074.768,921.362,1080.846,921.362z"/>
		</g>
	</g>
</g>
</svg>
